<?xml version="1.0" standalone="no"?>
<!DOCTYPE svg PUBLIC "-//W3C//DTD SVG 20010904//EN"
 "http://www.w3.org/TR/2001/REC-SVG-20010904/DTD/svg10.dtd">
<svg version="1.0" xmlns="http://www.w3.org/2000/svg"
 width="1243.000000pt" height="1280.000000pt" viewBox="0 0 1243.000000 1280.000000"
 preserveAspectRatio="xMidYMid meet">
<metadata>
Created by potrace 1.15, written by Peter Selinger 2001-2017
</metadata>
<g transform="translate(0.000000,1280.000000) scale(0.100000,-0.100000)"
fill="#000000" stroke="none">
<path d="M6092 12595 l3 -204 -50 -5 c-27 -3 -117 -8 -200 -11 -870 -35 -1834
-297 -2651 -720 -1454 -753 -2567 -2002 -3149 -3533 -24 -62 -40 -112 -37
-110 4 2 51 29 105 62 285 169 599 281 949 338 162 26 551 31 708 9 450 -62
873 -228 1205 -473 l59 -43 137 91 c222 148 467 263 719 338 520 154 1124 136
1626 -49 131 -48 344 -151 472 -228 l102 -61 0 -2718 c0 -2711 0 -2718 -20
-2718 -20 0 -20 -7 -20 -717 -1 -395 -5 -764 -10 -821 -12 -136 -34 -219 -82
-322 -33 -69 -56 -100 -122 -165 -139 -138 -275 -194 -495 -203 -152 -5 -231
5 -360 49 -178 60 -338 184 -414 320 -41 73 -77 198 -77 267 0 26 -9 65 -21
88 -53 111 -206 119 -276 14 -19 -28 -23 -46 -23 -116 0 -391 297 -752 730
-888 435 -138 869 -52 1158 228 142 137 230 301 285 531 20 87 21 114 24 913
l4 822 -26 0 -25 0 0 2710 0 2710 73 47 c39 26 140 81 222 124 844 434 1849
376 2644 -155 l137 -91 59 43 c332 245 755 411 1205 473 157 22 546 17 708 -9
350 -57 664 -169 949 -338 54 -33 101 -60 105 -62 3 -2 -13 48 -37 110 -389
1024 -1014 1922 -1841 2645 -641 560 -1413 1003 -2224 1277 -555 187 -1196
309 -1735 331 -77 3 -168 8 -202 11 l-63 6 0 204 0 204 -115 0 -116 0 3 -205z"/>
</g>
</svg>
